 <svg  version="1.0" xmlns="http://www.w3.org/2000/svg"  width="500.000000pt" height="500.000000pt" viewBox="0 0 500.000000 500.000000"  preserveAspectRatio="xMidYMid meet">  <g transform="translate(0.000000,500.000000) scale(0.050000,-0.050000)" fill="#ffffff" stroke="none"> <path d="M460 5500 l0 -3980 4040 0 4040 0 0 3980 0 3980 -4040 0 -4040 0 0 -3980z m2750 1629 c515 -149 912 -474 1539 -1259 647 -810 974 -1080 1421 -1172 636 -131 1252 91 1470 530 l61 122 -9 -110 c-67 -802 -997 -1498 -1846 -1381 -598 82 -962 378 -2145 1741 -291 336 -564 619 -686 712 -625 472 -1519 355 -1816 -239 -78 -155 -60 -57 25 137 329 752 1189 1150 1986 919z m3182 33 c169 -35 491 -169 597 -248 37 -28 37 -31 2 -143 -140 -446 162 -939 614 -1002 113 -16 118 -38 58 -252 -126 -455 -533 -717 -1112 -717 -316 1 -341 11 -208 84 637 348 438 1302 -281 1351 -238 16 -395 -71 -747 -413 -118 -115 -219 -205 -223 -200 -87 94 -612 752 -612 766 0 27 176 189 376 347 504 395 1008 536 1536 427z m1392 -357 l6 -155 150 -10 150 -10 6 -115 6 -115 -161 0 -161 0 0 -160 0 -160 -130 0 -130 0 0 160 0 160 -150 0 -150 0 0 120 0 120 150 0 150 0 0 160 0 160 129 0 129 0 6 -155z m-5313 -375 c65 -17 187 -64 269 -105 l150 -74 -150 -13 c-801 -67 -913 -1176 -143 -1409 281 -86 500 12 900 400 l207 201 51 -60 c28 -33 160 -184 293 -337 133 -152 245 -285 249 -297 11 -29 -380 -419 -537 -535 -1032 -768 -2437 -218 -2662 1042 -57 320 149 841 411 1038 219 165 642 230 962 149z"/> </g> </svg> 