<?xml version="1.0" standalone="no"?>
<!DOCTYPE svg PUBLIC "-//W3C//DTD SVG 20010904//EN"
 "http://www.w3.org/TR/2001/REC-SVG-20010904/DTD/svg10.dtd">
<svg version="1.0" xmlns="http://www.w3.org/2000/svg"
 width="300.000000pt" height="292.000000pt" viewBox="0 0 300.000000 292.000000"
 preserveAspectRatio="xMidYMid meet">
<metadata>
Created by potrace 1.10, written by Peter Selinger 2001-2011
</metadata>
<g transform="translate(0.000000,292.000000) scale(0.100000,-0.100000)"
fill="#FFFFFF" stroke="none">
<path d="M1487 2843 c-4 -3 0 -15 10 -25 19 -21 3 -24 -30 -6 -34 18 -155 21
-180 3 -14 -10 -25 -11 -38 -4 -10 5 -37 6 -59 3 -33 -5 -38 -9 -29 -20 6 -8
20 -14 31 -14 17 0 18 -3 8 -15 -9 -10 -32 -15 -75 -15 -61 0 -66 -2 -117 -45
-85 -73 -97 -123 -50 -209 19 -33 31 -74 35 -114 6 -55 4 -67 -15 -92 -21 -29
-21 -30 -3 -87 10 -32 25 -70 33 -85 24 -41 8 -45 -58 -13 -66 32 -94 57 -103
95 -8 32 -66 102 -81 97 -6 -2 -13 -17 -16 -33 -5 -28 -7 -27 -52 41 -52 77
-190 270 -213 298 -20 24 -31 15 -39 -30 -4 -21 -30 -130 -57 -243 -27 -113
-57 -234 -65 -269 -9 -35 -12 -67 -7 -71 4 -5 59 -24 122 -44 128 -40 225 -47
287 -21 l36 15 48 -53 c26 -28 82 -72 123 -97 74 -44 76 -46 98 -110 24 -73
60 -145 119 -239 39 -63 39 -65 34 -135 -5 -54 -2 -80 10 -110 9 -21 16 -54
16 -74 0 -36 35 -107 74 -150 32 -36 73 -54 125 -55 41 0 50 -5 91 -47 26 -27
55 -71 69 -106 37 -89 89 -172 137 -221 54 -53 131 -103 160 -103 11 0 54 -25
95 -55 94 -69 163 -106 264 -140 111 -38 145 -57 222 -123 38 -32 90 -71 116
-86 46 -27 49 -28 67 -11 37 33 20 191 -27 257 -16 24 -33 59 -37 78 -9 46
-42 79 -88 87 -27 4 -49 17 -71 41 -67 75 -132 131 -183 157 -60 31 -72 59
-55 120 7 25 7 45 -1 63 -15 40 -39 144 -34 150 3 2 29 -2 58 -9 73 -18 222
-15 254 5 44 30 68 92 68 181 1 74 -2 87 -43 173 -24 51 -42 93 -40 95 21 14
84 37 101 37 12 0 29 7 38 15 16 14 16 19 2 61 -8 26 -33 64 -58 89 -38 40
-48 45 -87 45 -34 0 -58 -9 -105 -39 -33 -22 -77 -44 -98 -50 -20 -6 -47 -20
-60 -32 -23 -21 -23 -21 -55 -3 l-31 19 0 133 c0 115 3 136 18 153 17 19 17
23 3 48 -11 19 -13 31 -6 43 8 12 6 23 -7 43 -17 26 -17 28 -1 37 11 7 15 17
11 32 -6 25 28 56 109 100 68 37 150 96 149 107 -1 5 -2 19 -2 32 -2 21 -10
24 -104 40 -126 21 -187 22 -284 2 -89 -19 -152 -45 -178 -74 -22 -24 -43 -26
-81 -9 -30 13 -33 38 -5 45 11 3 20 10 20 17 1 6 2 37 4 70 2 49 -1 62 -20 86
l-23 27 24 21 c30 26 31 38 5 77 -11 17 -20 45 -20 62 0 37 -33 66 -72 63 -13
-1 -29 -2 -35 -1 -16 1 -17 41 -2 41 19 0 5 43 -21 61 -30 21 -64 32 -73 22z
m-147 -52 c0 -5 -7 -14 -15 -21 -8 -7 -15 -17 -15 -22 0 -5 14 2 31 16 24 21
41 26 84 26 61 0 80 -15 38 -31 -36 -13 -54 -29 -47 -40 3 -5 23 1 44 13 31
18 42 20 52 10 9 -9 8 -12 -9 -12 -12 0 -25 -5 -28 -11 -4 -6 3 -9 21 -7 16 2
29 -2 32 -11 3 -10 -2 -12 -19 -8 -13 3 -31 2 -39 -3 -11 -7 -5 -10 23 -10 23
0 36 -4 32 -10 -3 -5 -16 -10 -28 -10 -27 0 -97 -41 -80 -47 6 -2 25 3 42 11
31 17 121 20 176 6 25 -6 27 -8 12 -15 -10 -4 -35 -5 -57 -1 -43 7 -90 -9 -90
-31 0 -11 4 -11 22 -2 13 7 53 13 90 14 64 1 82 -5 58 -20 -20 -12 -10 -26 10
-15 26 14 28 -10 2 -33 -17 -16 -22 -16 -65 -1 -51 17 -88 16 -95 -3 -2 -9 8
-13 31 -13 19 0 50 -6 68 -14 34 -14 86 -62 78 -70 -3 -3 -28 7 -57 21 -29 14
-59 23 -68 19 -23 -9 -9 -20 43 -35 47 -13 83 -51 83 -87 0 -29 -16 -32 -25
-4 -11 36 -27 22 -20 -18 5 -30 2 -44 -15 -65 -16 -20 -20 -35 -15 -57 l7 -31
-44 6 c-40 6 -42 5 -24 -9 16 -13 17 -18 6 -31 -11 -14 -14 -14 -25 1 -8 12
-14 14 -19 6 -4 -7 -14 -12 -21 -12 -11 0 -13 8 -8 30 3 17 1 30 -4 30 -5 0
-14 -13 -20 -30 -9 -23 -17 -30 -39 -30 l-27 0 23 25 c27 29 19 47 -9 21 -18
-17 -20 -16 -26 4 -6 19 -9 20 -23 7 -10 -8 -25 -17 -34 -20 -21 -7 -23 -28
-6 -45 6 -6 10 -13 7 -15 -2 -1 -37 -20 -78 -41 l-74 -38 -61 17 c-34 10 -67
19 -73 21 -7 2 -13 15 -13 29 0 14 -5 34 -10 45 -5 11 -14 29 -20 40 -5 11
-10 28 -10 38 0 10 -5 23 -10 28 -7 7 -6 19 2 37 14 30 28 35 28 11 0 -11 5
-14 16 -10 9 3 27 6 40 6 31 0 31 14 -1 28 -23 11 -36 35 -16 30 5 -2 10 2 12
7 2 6 -10 12 -27 15 -24 4 -30 11 -34 40 -3 19 -3 50 -1 68 3 30 6 33 30 28
14 -2 44 -8 65 -11 30 -5 52 -20 97 -66 l58 -59 -13 -43 c-11 -37 -15 -42 -40
-39 -25 3 -26 1 -16 -18 21 -40 70 -18 70 32 0 36 15 36 35 -1 14 -29 14 -30
-15 -51 -17 -12 -30 -30 -30 -41 0 -17 5 -14 35 15 42 42 43 59 10 108 -29 43
-30 48 -11 48 21 0 40 -28 52 -78 13 -49 9 -72 -11 -72 -15 0 -40 -28 -32 -36
10 -11 91 24 98 42 9 25 -2 43 -12 18 -5 -13 -8 -5 -8 27 -1 28 -7 51 -16 59
-15 13 -21 60 -7 60 25 -1 92 -89 92 -121 0 -9 -7 -22 -15 -29 -20 -17 -8 -32
16 -20 45 25 4 147 -58 171 l-26 10 24 25 c31 33 32 90 0 115 -13 11 -29 19
-37 19 -16 0 -19 -26 -4 -35 17 -10 11 -34 -11 -45 -12 -7 -41 -9 -74 -5 -42
6 -54 11 -58 27 -5 18 -11 19 -56 13 -60 -8 -67 5 -17 29 43 20 56 20 84 0 27
-19 41 -11 26 14 -7 10 -27 18 -52 20 -33 3 -51 -3 -88 -29 -31 -21 -49 -28
-56 -21 -16 16 -4 27 67 66 76 42 100 44 132 14 13 -12 25 -19 28 -16 11 11
-7 36 -39 53 -27 15 -36 15 -55 5 -13 -6 -25 -9 -29 -6 -3 3 -1 6 5 6 6 0 13
7 17 15 4 12 -1 14 -33 9 -23 -4 -48 -1 -61 6 -23 12 -23 13 -4 27 12 9 31 12
55 8 39 -7 109 16 109 34 0 6 5 11 10 11 6 0 10 -7 10 -15 0 -8 5 -15 10 -15
6 0 10 5 10 12 0 19 31 48 52 48 10 0 18 -4 18 -9z m320 -116 c0 -19 -24 -29
-47 -20 -17 6 -17 7 1 21 26 18 46 18 46 -1z m-600 -3 c0 -4 -14 -16 -30 -25
-36 -22 -63 -70 -55 -97 4 -11 2 -20 -4 -20 -6 0 -13 11 -17 25 -14 56 28 125
77 125 16 0 29 -4 29 -8z m43 -37 c1 -6 -12 -16 -28 -23 -53 -23 -60 -29 -63
-51 -4 -25 -22 -28 -22 -3 0 27 29 63 64 78 34 14 47 14 49 -1z m-566 -157
c42 -65 51 -84 42 -99 -15 -29 6 -59 41 -59 21 0 36 -9 54 -33 39 -50 32 -62
-17 -32 -24 14 -55 25 -68 25 -54 0 -79 -51 -52 -107 12 -25 13 -36 4 -47 -9
-11 -6 -18 15 -35 15 -12 25 -24 22 -27 -11 -11 -203 53 -202 67 1 8 14 65 29
127 28 110 28 112 57 112 35 0 47 -24 24 -49 -23 -26 -1 -39 25 -15 40 36 7
102 -46 92 -14 -3 -25 -1 -25 6 0 22 34 156 39 155 3 0 30 -37 58 -81z m832
-15 c-23 -26 -57 -34 -104 -22 -25 6 -50 17 -56 25 -14 17 -6 17 43 4 46 -13
102 7 114 42 8 23 9 23 12 -5 2 -16 -2 -35 -9 -44z m-90 -44 c22 -8 29 -15 22
-22 -6 -6 -21 -3 -43 11 -37 24 -28 28 21 11z m909 -103 c40 -8 75 -16 78 -19
10 -9 -86 -18 -123 -11 -36 7 -37 6 -23 -11 13 -15 25 -16 103 -10 72 5 88 4
85 -6 -8 -24 -88 -41 -160 -34 -41 4 -68 2 -68 -3 0 -15 27 -22 81 -22 27 0
49 -4 49 -10 0 -13 -95 -40 -142 -40 -21 0 -38 -4 -38 -10 0 -5 16 -10 36 -10
49 0 40 -22 -14 -34 -48 -10 -54 -21 -17 -30 35 -9 31 -26 -5 -26 -16 0 -30
-4 -30 -8 0 -5 14 -18 30 -30 38 -29 42 -57 5 -40 -39 18 -44 -1 -7 -31 37
-31 44 -66 12 -56 -24 7 -25 -2 -5 -29 35 -46 -1 -63 -49 -25 -35 28 -44 18
-17 -19 31 -44 25 -62 -8 -24 -36 42 -47 30 -16 -17 29 -41 31 -51 10 -51 -8
0 -28 27 -45 60 -17 33 -35 60 -40 60 -16 0 -12 -14 15 -61 26 -46 32 -79 15
-79 -6 0 -13 14 -17 30 -9 50 -23 45 -16 -6 5 -42 4 -46 -13 -42 -15 2 -21 16
-28 66 -5 34 -13 62 -18 62 -6 0 -7 -20 -3 -49 4 -33 3 -51 -5 -56 -18 -11
-30 14 -30 62 0 23 -4 45 -10 48 -5 3 -10 -1 -10 -9 0 -26 -17 -18 -25 12 -3
15 -12 34 -19 42 -7 8 -18 29 -24 46 -11 35 -1 54 29 54 10 0 31 17 46 38 15
20 34 41 41 45 7 5 17 20 22 33 8 19 17 24 45 24 19 0 35 -4 35 -10 0 -5 -5
-10 -11 -10 -6 0 -9 -7 -5 -15 3 -8 1 -15 -5 -15 -5 0 -7 -11 -3 -24 5 -22 1
-26 -31 -35 -20 -5 -42 -8 -50 -5 -7 3 -16 0 -20 -6 -4 -7 2 -14 14 -17 29 -7
16 -23 -19 -23 -15 0 -30 -7 -33 -15 -8 -19 11 -31 26 -16 6 6 20 11 30 11 10
0 21 8 23 18 3 9 23 25 45 34 39 17 43 21 53 68 3 14 21 44 41 67 19 23 35 50
35 60 0 24 55 109 75 117 8 3 15 11 15 19 0 13 19 37 30 37 3 0 38 -6 78 -14z
m-130 -8 c-2 -7 -22 -22 -44 -33 -28 -14 -34 -20 -21 -23 21 -4 22 -18 2 -26
-8 -3 -15 -12 -15 -20 0 -8 -9 -18 -20 -21 -23 -7 -27 -25 -5 -25 22 0 19 -27
-4 -40 -11 -5 -33 -10 -50 -10 -29 0 -30 2 -24 33 3 19 21 46 44 68 23 21 39
46 39 59 0 13 8 24 20 27 11 3 20 9 20 14 0 5 14 9 31 9 20 0 29 -4 27 -12z
m-118 -13 c-6 -8 -9 -19 -6 -24 8 -13 -31 -50 -71 -67 -36 -15 -45 -47 -17
-58 25 -9 0 -34 -47 -46 -22 -6 -39 -15 -39 -21 0 -6 9 -8 20 -4 29 9 25 -14
-5 -25 -17 -7 -25 -17 -25 -34 0 -27 -25 -46 -59 -46 -22 0 -82 81 -65 87 35
12 79 50 102 89 44 76 72 104 126 129 87 39 105 43 86 20z m-1120 -112 c14
-40 23 -48 87 -83 40 -21 80 -41 90 -43 10 -3 59 -17 110 -32 l91 -28 29 21
c76 54 165 92 214 92 104 0 183 -78 219 -215 7 -27 20 -58 29 -68 9 -10 32
-50 51 -90 33 -67 37 -72 80 -83 80 -21 360 -174 424 -232 41 -36 122 -137
145 -179 13 -25 41 -31 41 -10 0 23 -154 201 -209 241 -28 21 -50 43 -48 49 2
7 30 21 63 32 32 11 79 34 104 51 25 17 53 33 62 37 28 10 78 -12 78 -34 0
-10 5 -19 10 -19 6 0 10 -9 10 -20 0 -11 5 -20 11 -20 8 0 8 -4 0 -14 -10 -12
-7 -15 16 -18 15 -2 28 -7 28 -12 0 -14 -136 -55 -162 -49 -30 7 -29 -7 3 -54
82 -120 114 -237 88 -321 -23 -77 -35 -86 -117 -93 -98 -8 -190 6 -262 40 -76
35 -116 69 -156 132 -31 47 -59 67 -44 32 21 -53 21 -54 -26 -36 -24 9 -46 18
-48 19 -2 2 5 23 14 48 16 42 14 66 -4 66 -5 0 -11 -17 -14 -38 -10 -60 -24
-71 -117 -88 -280 -54 -422 -10 -466 144 -17 59 -35 95 -111 218 -24 39 -54
103 -67 142 l-24 70 81 10 c45 6 100 11 122 11 147 0 216 5 201 17 -21 15 -20
24 2 24 24 0 46 16 38 28 -4 6 -33 1 -78 -15 -51 -18 -98 -27 -156 -28 -46 -2
-110 -6 -143 -10 -55 -7 -66 -4 -127 26 -48 24 -93 59 -161 126 -52 51 -102
93 -112 93 -10 0 -24 6 -31 13 -7 7 -37 27 -65 46 -29 18 -53 35 -53 37 0 3
16 2 35 -2 45 -8 45 6 0 30 -19 11 -35 25 -35 33 0 11 7 9 29 -6 33 -23 41
-26 41 -11 0 6 -16 18 -35 27 -19 9 -36 22 -39 30 -8 20 5 15 48 -17 41 -31
56 -37 56 -21 0 5 -21 21 -46 36 -58 34 -46 54 15 24 23 -11 65 -23 93 -26 48
-6 50 -5 48 18 -1 13 -1 29 -1 34 3 17 35 -35 51 -82z m893 42 c14 -13 13 -20
-5 -64 -17 -38 -30 -53 -59 -66 -36 -17 -79 -13 -79 6 0 15 53 58 72 59 28 0
48 11 48 27 0 9 -6 13 -14 10 -17 -7 -40 18 -31 33 9 15 51 12 68 -5z m-1296
-150 c61 -23 164 -47 180 -41 8 4 26 -3 40 -14 14 -11 43 -25 64 -30 47 -13
49 -24 8 -39 -51 -18 -129 -13 -204 13 -38 13 -86 27 -105 31 -53 11 -59 19
-46 60 12 40 13 40 63 20z m1622 -332 c14 -48 14 -150 1 -158 -5 -3 -23 2 -40
11 -32 19 -32 26 -4 109 8 22 14 48 14 58 0 31 19 18 29 -20z m-81 -85 c-2
-17 -9 -22 -23 -20 -28 5 -30 9 -15 27 19 23 42 19 38 -7z m-733 -387 c9 -41
68 -106 112 -124 21 -8 72 -21 114 -28 69 -11 87 -10 197 10 134 25 193 23
252 -10 l35 -20 -37 5 c-21 3 -38 1 -38 -4 0 -10 25 -20 51 -20 25 0 117 -46
147 -74 28 -24 56 -75 48 -84 -4 -3 -21 8 -39 24 -50 46 -117 86 -148 88 -45
2 -38 -17 17 -44 28 -14 58 -31 67 -38 9 -8 20 -11 26 -8 21 13 117 -121 99
-139 -2 -2 -31 22 -64 53 -72 68 -228 157 -303 173 -52 11 -161 8 -293 -7 -31
-3 -83 -3 -115 1 -46 6 -63 13 -90 40 -18 18 -33 41 -33 51 0 15 4 14 28 -8
15 -14 41 -33 59 -42 37 -18 148 -22 159 -5 11 18 -22 41 -63 44 -21 1 -51 6
-68 10 -24 6 -28 5 -18 -5 6 -7 32 -15 57 -17 25 -3 46 -10 46 -16 0 -6 -18
-8 -46 -4 -78 8 -166 99 -180 185 -8 48 11 59 21 13z m140 -272 c24 -5 96 -4
178 3 165 14 223 6 343 -52 94 -45 159 -107 175 -164 13 -49 4 -89 -19 -84
-12 2 -18 17 -22 53 -7 61 -20 87 -63 119 -111 85 -266 98 -369 30 -45 -29
-52 -30 -78 -4 -27 27 -25 44 8 60 36 17 12 25 -33 10 -56 -19 -116 -15 -163
9 -23 12 -40 26 -36 32 3 6 13 7 23 3 9 -3 34 -10 56 -15z m477 -99 c88 -27
136 -81 152 -173 8 -40 31 -57 84 -57 77 -1 235 -102 299 -191 24 -34 42 -49
57 -49 64 0 106 -38 106 -94 0 -12 15 -40 33 -62 29 -33 35 -50 41 -107 5 -53
4 -68 -6 -65 -7 3 -15 15 -18 28 -3 13 -12 26 -19 28 -14 5 -12 -12 5 -70 3
-10 1 -18 -4 -18 -16 0 -105 74 -149 124 -36 41 -49 48 -117 66 -139 35 -252
90 -341 165 -32 27 -37 37 -27 47 13 13 17 58 5 58 -5 0 -16 -14 -26 -31 -15
-27 -21 -30 -45 -25 -39 10 -128 73 -168 120 -34 39 -134 228 -134 252 0 27
108 73 171 74 20 0 66 -9 101 -20z m281 -145 c23 -49 22 -67 -4 -63 -17 2 -22
11 -25 51 -4 56 6 60 29 12z"/>
<path d="M1580 2362 c0 -5 6 -16 13 -27 16 -20 31 -7 21 19 -6 16 -34 23 -34
8z"/>
<path d="M1520 2266 c0 -23 56 -79 71 -70 8 5 6 12 -7 23 -11 9 -29 27 -41 41
-20 21 -23 22 -23 6z"/>
<path d="M450 2209 c0 -7 8 -18 18 -25 16 -11 15 -13 -12 -24 -27 -10 -28 -12
-14 -26 12 -13 20 -14 37 -5 20 11 26 28 21 61 -4 26 -50 43 -50 19z"/>
<path d="M1440 1296 c0 -16 19 -25 38 -19 22 8 13 33 -13 33 -15 0 -25 -6 -25
-14z"/>
</g>
</svg>
